<svg width="164" height="31" viewBox="0 0 164 31" fill="none" xmlns="http://www.w3.org/2000/svg">
<g clip-path="url(#clip0_2010_18)">
<path d="M15.2145 4C14.1114 5.58314 15.207 9.76875 15.4468 11.6667L16.3761 11.4343C16.1177 9.38927 16.3597 5.67624 15.2145 4Z" fill="#FF7000"/>
<path d="M18.2348 4.23242L16.6085 11.4344L17.5378 11.6668L18.9317 4.46474L18.2348 4.23242Z" fill="#FF7000"/>
<path d="M11.4974 5.16152L14.053 11.8989L9.63885 6.55546L8.70956 6.78778L13.1237 12.8282L6.85098 8.87869L6.61865 9.80799L12.8914 13.7575L14.053 11.8989L15.2146 11.6666L12.4267 4.9292L11.4974 5.16152Z" fill="#FF7000"/>
<path d="M21.255 5.16162L17.7701 11.899C19.3909 12.1443 22.3534 6.41568 21.255 5.16162Z" fill="#FF7000"/>
<path d="M18.9318 12.8281C21.0217 12.3875 23.5428 9.18398 24.7398 7.4847C22.7904 7.32137 19.4325 11.044 18.9318 12.8281Z" fill="#FF7000"/>
<path d="M5.45693 11.8989L5.22461 12.5959C7.18946 13.6271 10.2075 14.5854 12.4266 14.6868C11.8252 12.9572 7.14007 12.2473 5.45693 11.8989Z" fill="#FF7000"/>
<path d="M4.76001 15.1516V16.0809H12.1943V15.1516H4.76001Z" fill="#FF7000"/>
<path d="M20.3257 16.0809L27.76 15.8485V15.3839C26.285 14.9479 20.8805 14.4093 20.3257 16.0809Z" fill="#FF7000"/>
<path d="M20.0934 16.5457C20.6964 18.2785 25.382 18.9856 27.0631 19.3335L27.2954 19.1012V18.6366C25.3179 17.5987 22.3266 16.643 20.0934 16.5457Z" fill="#FF7000"/>
<path d="M19.8611 17.4749L19.3965 18.4041L25.6692 22.3536L25.9015 21.4243L19.8611 17.4749Z" fill="#FF7000"/>
<path d="M8.01257 23.7475L8.2449 23.9798L13.8207 19.101C12.3237 17.7254 8.63652 22.4095 8.01257 23.7475Z" fill="#FF7000"/>
<path d="M20.0934 26.3031H21.0227L18.4672 19.101H18.6995C19.6523 20.9475 21.6846 23.7752 23.5783 24.6768L23.8106 24.4445C23.0592 22.7585 21.2496 20.3427 19.7939 19.1849C19.1732 18.6913 17.9979 18.8027 17.7024 19.6564C17.1779 21.1723 19.6644 24.7351 20.0934 26.3031Z" fill="#FF7000"/>
<path d="M13.8206 19.1011C13.1714 20.6605 9.99376 24.6991 11.2651 26.0708L14.7499 19.3334L13.8206 19.1011Z" fill="#FF7000"/>
<path d="M14.9823 19.5657L13.8207 27C15.9548 26.3758 14.7718 21.4403 16.3762 20.0303C16.3762 21.5172 16.161 26.5293 17.7702 27C17.7692 25.5046 18.0723 21.1189 17.0667 19.9903C16.6591 19.5329 15.5478 19.6271 14.9823 19.5657Z" fill="#FF7000"/>
</g>
<path d="M33.6715 24V21.648H35.9745V9.202H33.6715V6.85H40.5315C42.8182 6.85 44.5659 7.42983 45.7745 8.5895C46.9995 9.74917 47.612 11.4968 47.612 13.8325V17.042C47.612 19.3777 46.9995 21.1253 45.7745 22.285C44.5659 23.4283 42.8182 24 40.5315 24H33.6715ZM38.645 21.599H40.556C42.0424 21.599 43.1449 21.2233 43.8635 20.472C44.5822 19.7207 44.9415 18.6018 44.9415 17.1155V13.7345C44.9415 12.2318 44.5822 11.113 43.8635 10.378C43.1449 9.643 42.0424 9.2755 40.556 9.2755H38.645V21.599ZM56.2125 24.343C54.9875 24.343 53.9176 24.0898 53.003 23.5835C52.0883 23.0608 51.3696 22.334 50.847 21.403C50.3406 20.4557 50.0875 19.3613 50.0875 18.12V17.826C50.0875 16.5683 50.3406 15.474 50.847 14.543C51.3533 13.5957 52.0556 12.8688 52.954 12.3625C53.8686 11.8398 54.9221 11.5785 56.1145 11.5785C57.2741 11.5785 58.2868 11.8398 59.1525 12.3625C60.0345 12.8688 60.7205 13.5793 61.2105 14.494C61.7005 15.4087 61.9455 16.4785 61.9455 17.7035V18.659H52.66C52.6926 19.7207 53.0438 20.57 53.7135 21.207C54.3995 21.8277 55.2488 22.138 56.2615 22.138C57.2088 22.138 57.9193 21.9257 58.393 21.501C58.883 21.0763 59.2586 20.5863 59.52 20.031L61.6025 21.109C61.3738 21.5663 61.039 22.0482 60.598 22.5545C60.1733 23.0608 59.6098 23.4855 58.9075 23.8285C58.2051 24.1715 57.3068 24.343 56.2125 24.343ZM52.6845 16.7235H59.373C59.3076 15.8088 58.981 15.0983 58.393 14.592C57.805 14.0693 57.0373 13.808 56.09 13.808C55.1426 13.808 54.3668 14.0693 53.7625 14.592C53.1745 15.0983 52.8151 15.8088 52.6845 16.7235ZM67.3454 24L63.2784 11.9215H65.9489L69.1584 22.138H69.5504L72.7599 11.9215H75.4304L71.3634 24H67.3454Z" fill="#373129"/>
<path d="M77.8056 24V6.85H80.4516V24H77.8056ZM84.0998 24V11.9215H86.5743V13.7345H86.9663C87.195 13.2445 87.6033 12.7872 88.1913 12.3625C88.7793 11.9378 89.6531 11.7255 90.8128 11.7255C91.7275 11.7255 92.536 11.9297 93.2383 12.338C93.957 12.7463 94.5205 13.3262 94.9288 14.0775C95.3371 14.8125 95.5413 15.7027 95.5413 16.748V24H93.0178V16.944C93.0178 15.8987 92.7565 15.131 92.2338 14.641C91.7111 14.1347 90.9925 13.8815 90.0778 13.8815C89.0325 13.8815 88.1913 14.2245 87.5543 14.9105C86.9336 15.5965 86.6233 16.5928 86.6233 17.8995V24H84.0998ZM104.122 24.343C102.587 24.343 101.313 24 100.3 23.314C99.2874 22.628 98.6667 21.5908 98.438 20.2025L100.79 19.639C100.921 20.3087 101.141 20.8395 101.452 21.2315C101.762 21.6235 102.146 21.9012 102.603 22.0645C103.077 22.2278 103.583 22.3095 104.122 22.3095C104.922 22.3095 105.535 22.1543 105.96 21.844C106.401 21.5337 106.621 21.1335 106.621 20.6435C106.621 20.1535 106.417 19.7942 106.009 19.5655C105.6 19.3368 104.996 19.149 104.196 19.002L103.363 18.855C102.546 18.708 101.803 18.4957 101.133 18.218C100.463 17.9403 99.9325 17.5565 99.5405 17.0665C99.1485 16.5765 98.9525 15.9477 98.9525 15.18C98.9525 14.0367 99.3772 13.1547 100.227 12.534C101.076 11.897 102.203 11.5785 103.608 11.5785C104.963 11.5785 106.074 11.8888 106.94 12.5095C107.822 13.1138 108.393 13.9387 108.655 14.984L106.303 15.6455C106.156 14.9105 105.845 14.396 105.372 14.102C104.898 13.7917 104.31 13.6365 103.608 13.6365C102.922 13.6365 102.383 13.7672 101.991 14.0285C101.599 14.2735 101.403 14.6247 101.403 15.082C101.403 15.572 101.59 15.9313 101.966 16.16C102.358 16.3887 102.881 16.5602 103.534 16.6745L104.392 16.8215C105.257 16.9685 106.049 17.1727 106.768 17.434C107.487 17.6953 108.05 18.071 108.459 18.561C108.883 19.051 109.096 19.7043 109.096 20.521C109.096 21.7297 108.646 22.6688 107.748 23.3385C106.85 24.0082 105.641 24.343 104.122 24.343ZM112.045 24V11.9215H114.569V24H112.045ZM113.319 10.28C112.829 10.28 112.413 10.1248 112.07 9.8145C111.743 9.48783 111.58 9.07133 111.58 8.565C111.58 8.05867 111.743 7.65033 112.07 7.34C112.413 7.01333 112.829 6.85 113.319 6.85C113.825 6.85 114.242 7.01333 114.569 7.34C114.895 7.65033 115.059 8.05867 115.059 8.565C115.059 9.07133 114.895 9.48783 114.569 9.8145C114.242 10.1248 113.825 10.28 113.319 10.28ZM117.726 18.022V17.6545C117.726 16.3805 117.979 15.2943 118.485 14.396C119.008 13.4977 119.694 12.8035 120.543 12.3135C121.392 11.8235 122.323 11.5785 123.336 11.5785C124.512 11.5785 125.41 11.799 126.031 12.24C126.668 12.681 127.134 13.1547 127.428 13.661H127.82V11.9215H130.27V26.4745C130.27 27.2095 130.049 27.7975 129.608 28.2385C129.183 28.6795 128.595 28.9 127.844 28.9H119.71V26.695H127.06C127.534 26.695 127.771 26.45 127.771 25.96V22.1135H127.379C127.199 22.4075 126.946 22.7097 126.619 23.02C126.292 23.3303 125.86 23.5835 125.321 23.7795C124.798 23.9755 124.136 24.0735 123.336 24.0735C122.323 24.0735 121.384 23.8367 120.519 23.363C119.669 22.873 118.991 22.1788 118.485 21.2805C117.979 20.3658 117.726 19.2797 117.726 18.022ZM124.022 21.8685C125.116 21.8685 126.015 21.5255 126.717 20.8395C127.436 20.1372 127.795 19.1735 127.795 17.9485V17.728C127.795 16.4703 127.444 15.5067 126.742 14.837C126.039 14.151 125.133 13.808 124.022 13.808C122.944 13.808 122.046 14.151 121.327 14.837C120.625 15.5067 120.274 16.4703 120.274 17.728V17.9485C120.274 19.1735 120.625 20.1372 121.327 20.8395C122.046 21.5255 122.944 21.8685 124.022 21.8685ZM133.985 24V6.85H136.509V13.6365H136.901C137.064 13.3262 137.293 13.024 137.587 12.73C137.897 12.436 138.297 12.1992 138.787 12.0195C139.293 11.8235 139.93 11.7255 140.698 11.7255C141.613 11.7255 142.421 11.9297 143.124 12.338C143.842 12.7463 144.406 13.3262 144.814 14.0775C145.222 14.8125 145.427 15.7027 145.427 16.748V24H142.903V16.944C142.903 15.8987 142.642 15.131 142.119 14.641C141.596 14.1347 140.878 13.8815 139.963 13.8815C138.918 13.8815 138.077 14.2245 137.44 14.9105C136.819 15.5965 136.509 16.5928 136.509 17.8995V24H133.985ZM153.256 24C152.521 24 151.933 23.7795 151.492 23.3385C151.067 22.8975 150.855 22.3095 150.855 21.5745V14.053H147.523V11.9215H150.855V7.928H153.378V11.9215H156.98V14.053H153.378V21.1335C153.378 21.6235 153.607 21.8685 154.064 21.8685H156.588V24H153.256Z" fill="#FF7000"/>
<defs>
<clipPath id="clip0_2010_18">
<rect width="23" height="23" fill="white" transform="translate(4.76001 4)"/>
</clipPath>
</defs>
</svg>
