<svg width="20" height="20" viewBox="0 0 20 20" fill="none" xmlns="http://www.w3.org/2000/svg">
<path d="M9.99984 6.45835C9.48207 6.45835 9.06234 6.87809 9.06234 7.39585C9.06234 7.74103 8.78252 8.02085 8.43734 8.02085C8.09216 8.02085 7.81234 7.74103 7.81234 7.39585C7.81234 6.18773 8.79172 5.20835 9.99984 5.20835C11.208 5.20835 12.1873 6.18773 12.1873 7.39585C12.1873 8.19864 11.7545 8.89967 11.1126 9.27949C10.9486 9.3765 10.8133 9.48241 10.7251 9.58633C10.6395 9.68721 10.6248 9.75302 10.6248 9.79169V10.8334C10.6248 11.1785 10.345 11.4584 9.99984 11.4584C9.65466 11.4584 9.37484 11.1785 9.37484 10.8334V9.79169C9.37484 9.37012 9.5594 9.02805 9.772 8.77753C9.98202 8.53004 10.2439 8.34102 10.4761 8.20368C10.7535 8.03951 10.9373 7.73882 10.9373 7.39585C10.9373 6.87809 10.5176 6.45835 9.99984 6.45835Z" fill="#1DA1F2"/>
<path d="M9.99984 14.1667C10.4601 14.1667 10.8332 13.7936 10.8332 13.3334C10.8332 12.8731 10.4601 12.5 9.99984 12.5C9.5396 12.5 9.1665 12.8731 9.1665 13.3334C9.1665 13.7936 9.5396 14.1667 9.99984 14.1667Z" fill="#1DA1F2"/>
<path fill-rule="evenodd" clip-rule="evenodd" d="M9.95202 1.04169H10.0477C11.9713 1.04168 13.4788 1.04167 14.6551 1.19981C15.859 1.36168 16.8091 1.69946 17.5547 2.44513C18.3004 3.19081 18.6382 4.14083 18.8 5.34478C18.9582 6.52102 18.9582 8.02855 18.9582 9.95221V10.0478C18.9582 11.9715 18.9582 13.479 18.8 14.6553C18.6382 15.8592 18.3004 16.8092 17.5547 17.5549C16.8091 18.3006 15.859 18.6384 14.6551 18.8002C13.4788 18.9584 11.9713 18.9584 10.0476 18.9584H9.95203C8.02836 18.9584 6.52083 18.9584 5.34459 18.8002C4.14065 18.6384 3.19063 18.3006 2.44495 17.5549C1.69928 16.8092 1.36149 15.8592 1.19963 14.6553C1.04149 13.479 1.04149 11.9715 1.0415 10.0478V9.9522C1.04149 8.02855 1.04149 6.52101 1.19963 5.34478C1.36149 4.14083 1.69928 3.19081 2.44495 2.44513C3.19063 1.69946 4.14065 1.36168 5.34459 1.19981C6.52083 1.04167 8.02837 1.04168 9.95202 1.04169ZM5.51115 2.43866C4.44582 2.58189 3.80355 2.8543 3.32883 3.32902C2.85412 3.80373 2.58171 4.446 2.43848 5.51133C2.29283 6.59465 2.2915 8.01817 2.2915 10C2.2915 11.9819 2.29283 13.4054 2.43848 14.4887C2.58171 15.554 2.85412 16.1963 3.32883 16.671C3.80355 17.1457 4.44582 17.4181 5.51115 17.5614C6.59447 17.707 8.01798 17.7084 9.99984 17.7084C11.9817 17.7084 13.4052 17.707 14.4885 17.5614C15.5539 17.4181 16.1961 17.1457 16.6708 16.671C17.1456 16.1963 17.418 15.554 17.5612 14.4887C17.7068 13.4054 17.7082 11.9819 17.7082 10C17.7082 8.01817 17.7068 6.59465 17.5612 5.51133C17.418 4.446 17.1456 3.80373 16.6708 3.32902C16.1961 2.8543 15.5539 2.58189 14.4885 2.43866C13.4052 2.29302 11.9817 2.29169 9.99984 2.29169C8.01798 2.29169 6.59447 2.29302 5.51115 2.43866Z" fill="#1DA1F2"/>
</svg>
